/* XPM */
static char *dummy[]={
"35 35 2 1",
"# c #00ff00",
". c none",
"..........###############..........",
"........###################........",
".......#####...........#####.......",
"......#####...........##..###......",
".....####............###..####.....",
"....####............####...####....",
"...####............#####....####...",
"..####............######.....####..",
".####............#######......###..",
".###............########.......###.",
"###............#########.......###.",
"###...........##########........###",
"##...........###########........###",
"##..........############.........##",
"##.........#############.........##",
"##........##############.........##",
"##.......###############.........##",
"##......################.........##",
"##.....#################.........##",
"##....##################.........##",
"##...###################.........##",
"###.####################.........##",
"########################........###",
"###............#########........###",
".###............########.......####",
".####............#######......####.",
"..####............######.....#####.",
"..#####............#####....#####..",
"...#####............####...#####...",
"....#####............###..#####....",
".....#####............##.#####.....",
"......#####............######......",
".......######..........#####.......",
"........###################........",
"..........###############.........."};
